<?xml version="1.0" encoding="utf-8"?>
<!-- Generator: Adobe Illustrator 25.0.0, SVG Export Plug-In . SVG Version: 6.00 Build 0)  -->
<svg version="1.1" id="tk-filter" xmlns="http://www.w3.org/2000/svg" xmlns:xlink="http://www.w3.org/1999/xlink" x="0px" y="0px"
	 viewBox="0 0 45.4 45.4" style="enable-background:new 0 0 45.4 45.4;" xml:space="preserve">
<g>
	<path d="M22.7,2.6c-11.1,0-20.1,9-20.1,20.1s9,20.1,20.1,20.1s20.1-9,20.1-20.1C42.8,11.6,33.8,2.6,22.7,2.6z M22.7,39.1
		c-9.1,0-16.4-7.4-16.4-16.4c0-9.1,7.4-16.4,16.4-16.4c9.1,0,16.4,7.4,16.4,16.4S31.7,39.1,22.7,39.1z"/>
	<path d="M16.6,11.7c-1.2,0-2.2,0.7-2.7,1.7h-2.1v2.8h2.1c0.5,1,1.5,1.7,2.7,1.7s2.2-0.7,2.7-1.7h14.3v-2.8H19.3
		C18.8,12.4,17.8,11.7,16.6,11.7z"/>
	<path d="M27.8,19.3c-1.2,0-2.2,0.7-2.7,1.7H11.7v2.8H25c0.5,1,1.5,1.7,2.7,1.7s2.2-0.7,2.7-1.7h3.1V21h-3.1
		C30,20,29,19.3,27.8,19.3z"/>
	<path d="M19.7,26.9c-1.2,0-2.2,0.7-2.7,1.7h-5.2v2.8H17c0.5,1,1.5,1.7,2.7,1.7s2.2-0.7,2.7-1.7h11.2v-2.8H22.4
		C21.9,27.6,20.9,26.9,19.7,26.9z"/>
</g>
</svg>
